<?xml version="1.0" encoding="UTF-8" standalone="no"?>
<!-- Created with Inkscape (http://www.inkscape.org/) -->

<svg
   xmlns:dc="http://purl.org/dc/elements/1.1/"
   xmlns:cc="http://creativecommons.org/ns#"
   xmlns:rdf="http://www.w3.org/1999/02/22-rdf-syntax-ns#"
   xmlns:svg="http://www.w3.org/2000/svg"
   xmlns="http://www.w3.org/2000/svg"
   xmlns:sodipodi="http://sodipodi.sourceforge.net/DTD/sodipodi-0.dtd"
   xmlns:inkscape="http://www.inkscape.org/namespaces/inkscape"
   width="411.22586mm"
   height="68.543205mm"
   viewBox="0 0 411.22587 68.543205"
   version="1.1"
   id="svg8"
   inkscape:version="0.92.4 (unknown)"
   sodipodi:docname="logo.svg"
   inkscape:export-filename="/home/koolamusic/bitmap.png"
   inkscape:export-xdpi="100"
   inkscape:export-ydpi="100">
  <defs
     id="defs2" />
  <sodipodi:namedview
     id="base"
     pagecolor="#ffffff"
     bordercolor="#666666"
     borderopacity="1.0"
     inkscape:pageopacity="0.0"
     inkscape:pageshadow="2"
     inkscape:zoom="0.35"
     inkscape:cx="635.84199"
     inkscape:cy="73.827719"
     inkscape:document-units="mm"
     inkscape:current-layer="text12"
     showgrid="false"
     inkscape:window-width="1366"
     inkscape:window-height="713"
     inkscape:window-x="0"
     inkscape:window-y="25"
     inkscape:window-maximized="1" />
  <metadata
     id="metadata5">
    <rdf:RDF>
      <cc:Work
         rdf:about="">
        <dc:format>image/svg+xml</dc:format>
        <dc:type
           rdf:resource="http://purl.org/dc/dcmitype/StillImage" />
        <dc:title />
      </cc:Work>
    </rdf:RDF>
  </metadata>
  <g
     inkscape:label="Layer 1"
     inkscape:groupmode="layer"
     id="layer1"
     transform="translate(357.68494,-99.823711)">
    <g
       aria-label="kpilens | "
       style="font-style:normal;font-variant:normal;font-weight:normal;font-stretch:normal;font-size:69.6577301px;line-height:1.25;font-family:'Copyright Sharp Type Co.';-inkscape-font-specification:'Copyright Sharp Type Co.';letter-spacing:0px;word-spacing:0px;fill:#0667d0;fill-opacity:1;stroke:none;stroke-width:1.7414434"
       id="text12">
      <path
         d="M -357.68494,152.48495 V 99.823711 h 10.44866 v 32.181869 l 11.56318,-13.37428 h 12.81702 l -13.44394,15.25504 13.79223,18.59861 h -13.16531 l -11.42387,-17.1358 h -0.13931 v 17.1358 z"
         style="font-style:normal;font-variant:normal;font-weight:900;font-stretch:normal;font-family:Avenir;-inkscape-font-specification:'Avenir Heavy';fill:#0667d0;fill-opacity:1;stroke-width:1.7414434"
         id="path55" />
      <path
         d="M -317.93541,168.36692 V 118.6313 h 9.61277 v 4.45809 h 0.13931 q 1.3235,-2.08973 4.17947,-3.69186 2.92562,-1.60212 6.19953,-1.60212 7.45338,0 12.05079,4.87604 4.59741,4.87604 4.59741,12.60805 0,7.38371 -4.24912,12.74736 -4.24912,5.29399 -11.21489,5.29399 -7.52304,0 -10.7273,-4.4581 h -0.13931 v 19.50417 z m 11.84181,-39.00833 q -2.22904,2.36836 -2.22904,6.19954 0,3.83117 2.22904,6.19953 2.22905,2.36837 6.12988,2.36837 3.90084,0 6.12988,-2.36837 2.22905,-2.36836 2.22905,-6.19953 0,-3.83118 -2.22905,-6.19954 -2.22904,-2.36836 -6.12988,-2.36836 -3.90083,0 -6.12988,2.36836 z"
         style="font-style:normal;font-variant:normal;font-weight:900;font-stretch:normal;font-family:Avenir;-inkscape-font-specification:'Avenir Heavy';fill:#0667d0;fill-opacity:1;stroke-width:1.7414434"
         id="path57" />
      <path
         d="M -274.82707,152.48495 V 118.6313 h 10.44866 v 33.85365 z m 0.90555,-40.19251 q -1.74145,-1.8111 -1.74145,-4.31877 0,-2.50768 1.74145,-4.24913 1.8111,-1.8111 4.31878,-1.8111 2.50767,0 4.24912,1.8111 1.8111,1.74145 1.8111,4.24913 0,2.50767 -1.8111,4.31877 -1.74145,1.74145 -4.24912,1.74145 -2.50768,0 -4.31878,-1.74145 z"
         style="font-style:normal;font-variant:normal;font-weight:900;font-stretch:normal;font-family:Avenir;-inkscape-font-specification:'Avenir Heavy';fill:#0667d0;fill-opacity:1;stroke-width:1.7414434"
         id="path59" />
      <path
         d="M -256.73239,152.48495 V 99.823711 h 10.44866 v 52.661239 z"
         style="font-style:normal;font-variant:normal;font-weight:900;font-stretch:normal;font-family:Avenir;-inkscape-font-specification:'Avenir Heavy';fill:#0667d0;fill-opacity:1;stroke-width:1.7414434"
         id="path61" />
      <path
         d="m -214.04852,141.27006 7.31406,5.36365 q -2.50767,3.13459 -6.33885,4.94569 -3.83118,1.74145 -7.94098,1.74145 -8.01064,0 -13.44394,-4.87604 -5.36365,-4.9457 -5.36365,-12.88668 0,-7.94098 5.36365,-12.81703 5.4333,-4.94569 13.44394,-4.94569 7.31406,0 11.56318,4.80638 4.31878,4.80638 4.31878,12.95634 v 3.27391 h -24.24089 q 0.62692,2.99528 2.71665,4.80638 2.15939,1.74145 5.15467,1.74145 4.4581,0 7.45338,-4.10981 z m -15.3247,-9.54311 h 13.79223 q 0.0697,-2.64699 -1.8111,-4.52775 -1.8111,-1.88076 -4.59741,-1.88076 -3.27391,0 -5.22433,1.88076 -1.95042,1.88076 -2.15939,4.52775 z"
         style="font-style:normal;font-variant:normal;font-weight:900;font-stretch:normal;font-family:Avenir;-inkscape-font-specification:'Avenir Heavy';fill:#0667d0;fill-opacity:1;stroke-width:1.7414434"
         id="path63" />
      <path
         d="M -198.77823,152.48495 V 118.6313 h 10.03071 v 4.59741 h 0.13932 q 1.18418,-2.22905 3.76151,-3.83118 2.57734,-1.60212 6.12988,-1.60212 7.31406,0 9.8914,4.17946 2.64699,4.10981 2.64699,11.84181 v 18.66827 h -10.44865 v -16.57853 q 0,-1.53247 -0.0697,-2.43803 0,-0.9752 -0.27863,-2.36836 -0.27863,-1.39315 -0.8359,-2.15939 -0.55726,-0.76623 -1.67178,-1.32349 -1.04487,-0.62692 -2.57734,-0.62692 -3.69186,0 -5.01535,2.36836 -1.25384,2.2987 -1.25384,6.26919 v 16.85717 z"
         style="font-style:normal;font-variant:normal;font-weight:900;font-stretch:normal;font-family:Avenir;-inkscape-font-specification:'Avenir Heavy';fill:#0667d0;fill-opacity:1;stroke-width:1.7414434"
         id="path65" />
      <path
         d="m -133.21508,122.2535 -6.40851,6.33885 q -2.29871,-2.85596 -6.06023,-2.85596 -1.53247,0 -2.71665,0.69657 -1.11452,0.69658 -1.11452,2.08974 0,1.11452 1.25384,1.88075 1.3235,0.69658 3.27391,1.04487 2.02008,0.27863 4.24912,0.97521 2.29871,0.62692 4.24912,1.60213 2.02008,0.90555 3.27392,3.06494 1.32349,2.08973 1.32349,5.08501 0,3.06494 -1.39315,5.36365 -1.39315,2.2987 -3.76152,3.48288 -2.2987,1.18418 -4.9457,1.74145 -2.57733,0.55726 -5.50296,0.55726 -8.77687,0 -13.30462,-4.59741 l 6.33885,-7.03543 q 3.06494,3.69186 7.38372,3.69186 4.73673,0 4.73673,-2.43802 0,-1.46282 -1.81111,-2.22905 -1.8111,-0.76624 -4.38843,-1.25384 -2.57734,-0.55726 -5.22433,-1.39316 -2.57734,-0.83589 -4.38844,-3.06494 -1.8111,-2.22904 -1.8111,-5.78159 0,-5.57262 4.17946,-8.49824 4.17947,-2.92562 10.03072,-2.92562 8.35892,0 12.53839,4.45809 z"
         style="font-style:normal;font-variant:normal;font-weight:900;font-stretch:normal;font-family:Avenir;-inkscape-font-specification:'Avenir Heavy';fill:#0667d0;fill-opacity:1;stroke-width:1.7414434"
         id="path67" />
      <path
         d="M -106.2042,153.73879 V 99.823711 h 8.77687 v 53.915079 z"
         style="font-style:normal;font-variant:normal;font-weight:900;font-stretch:normal;font-family:Avenir;-inkscape-font-specification:'Avenir Heavy';fill:#0667d0;fill-opacity:1;stroke-width:1.7414434"
         id="path69" />
    </g>
    <g
       aria-label="Monitoring &amp;
Evaluation"
       style="font-style:normal;font-variant:normal;font-weight:normal;font-stretch:normal;font-size:23.21587753px;line-height:1.25;font-family:'Copyright Sharp Type Co.';-inkscape-font-specification:'Copyright Sharp Type Co.';letter-spacing:0px;word-spacing:0px;fill:#000000;fill-opacity:1;stroke:none;stroke-width:0.58039695"
       id="text840">
      <path
         d="m -75.820866,119.15092 h 0.02322 l 5.502163,-13.60451 h 2.553746 v 16.43684 h -1.671543 v -14.27776 h -0.04643 l -5.943265,14.27776 h -0.882203 l -5.943265,-14.27776 h -0.04643 v 14.27776 h -1.671543 v -16.43684 h 2.553747 z"
         style="font-style:normal;font-variant:normal;font-weight:normal;font-stretch:normal;font-family:avenir-next-regular;-inkscape-font-specification:avenir-next-regular;stroke-width:0.58039695"
         id="path12" />
      <path
         d="m -52.657949,116.55074 q 0,1.23044 -0.441101,2.27515 -0.417886,1.04472 -1.18401,1.81084 -0.766124,0.76613 -1.834055,1.20723 -1.06793,0.41788 -2.344803,0.41788 -1.253658,0 -2.321588,-0.41788 -1.06793,-0.4411 -1.834054,-1.20723 -0.766124,-0.76612 -1.207226,-1.81084 -0.417886,-1.04471 -0.417886,-2.27515 0,-1.23044 0.417886,-2.27516 0.441102,-1.04471 1.207226,-1.81084 0.766124,-0.76612 1.834054,-1.18401 1.06793,-0.4411 2.321588,-0.4411 1.276873,0 2.344803,0.4411 1.067931,0.41789 1.834055,1.18401 0.766124,0.76613 1.18401,1.81084 0.441101,1.04472 0.441101,2.27516 z m -1.671543,0 q 0,-0.90542 -0.301806,-1.69476 -0.278591,-0.81256 -0.812556,-1.39295 -0.533965,-0.60362 -1.300089,-0.95185 -0.766124,-0.34824 -1.717975,-0.34824 -0.951851,0 -1.717975,0.34824 -0.742908,0.34823 -1.276873,0.95185 -0.533966,0.58039 -0.835772,1.39295 -0.278591,0.78934 -0.278591,1.69476 0,0.90542 0.278591,1.71797 0.301806,0.78934 0.835772,1.39296 0.533965,0.58039 1.276873,0.92863 0.766124,0.32502 1.717975,0.32502 0.951851,0 1.717975,-0.32502 0.766124,-0.34824 1.300089,-0.92863 0.533965,-0.60362 0.812556,-1.39296 0.301806,-0.81255 0.301806,-1.71797 z"
         style="font-style:normal;font-variant:normal;font-weight:normal;font-stretch:normal;font-family:avenir-next-regular;-inkscape-font-specification:avenir-next-regular;stroke-width:0.58039695"
         id="path14" />
      <path
         d="m -47.844645,111.11822 q 0.04643,0.4411 0.06965,0.97507 0.02322,0.53396 0.02322,0.8822 h 0.04643 q 0.464318,-0.95185 1.509032,-1.53224 1.044715,-0.60362 2.205509,-0.60362 2.066213,0 3.087711,1.23044 1.044715,1.23045 1.044715,3.25023 v 6.66295 h -1.57868 v -6.01291 q 0,-0.85899 -0.139295,-1.55546 -0.139295,-0.69648 -0.487534,-1.18401 -0.325022,-0.51075 -0.905419,-0.78934 -0.557181,-0.27859 -1.416168,-0.27859 -0.626829,0 -1.230442,0.25537 -0.580397,0.25538 -1.044714,0.78934 -0.464318,0.51075 -0.742908,1.32331 -0.278591,0.78934 -0.278591,1.88048 v 5.57181 h -1.57868 v -8.47379 q 0,-0.4411 -0.02322,-1.13758 -0.02322,-0.69648 -0.06965,-1.25366 z"
         style="font-style:normal;font-variant:normal;font-weight:normal;font-stretch:normal;font-family:avenir-next-regular;-inkscape-font-specification:avenir-next-regular;stroke-width:0.58039695"
         id="path16" />
      <path
         d="m -34.191892,121.98325 h -1.57868 v -10.86503 h 1.57868 z m 0.325022,-15.04389 q 0,0.48754 -0.348238,0.81256 -0.348238,0.30181 -0.766124,0.30181 -0.417886,0 -0.766124,-0.30181 -0.348238,-0.32502 -0.348238,-0.81256 0,-0.48753 0.348238,-0.78933 0.348238,-0.32503 0.766124,-0.32503 0.417886,0 0.766124,0.32503 0.348238,0.3018 0.348238,0.78933 z"
         style="font-style:normal;font-variant:normal;font-weight:normal;font-stretch:normal;font-family:avenir-next-regular;-inkscape-font-specification:avenir-next-regular;stroke-width:0.58039695"
         id="path18" />
      <path
         d="m -25.091271,112.44153 h -3.064496 v 6.33793 q 0,0.60362 0.116079,0.99829 0.11608,0.39467 0.325023,0.62682 0.232158,0.20895 0.533965,0.30181 0.301806,0.0697 0.650044,0.0697 0.325023,0 0.673261,-0.0929 0.371454,-0.0929 0.696476,-0.25537 l 0.06965,1.36974 q -0.417886,0.16251 -0.882204,0.23216 -0.441101,0.0929 -0.975066,0.0929 -0.441102,0 -0.928636,-0.11608 -0.487533,-0.11608 -0.905419,-0.4411 -0.417886,-0.32502 -0.696476,-0.88221 -0.255375,-0.55718 -0.255375,-1.4626 v -6.77903 h -2.25194 v -1.32331 h 2.25194 v -3.06449 h 1.57868 v 3.06449 h 3.064496 z"
         style="font-style:normal;font-variant:normal;font-weight:normal;font-stretch:normal;font-family:avenir-next-regular;-inkscape-font-specification:avenir-next-regular;stroke-width:0.58039695"
         id="path20" />
      <path
         d="m -11.848789,116.55074 q 0,1.23044 -0.441101,2.27515 -0.417886,1.04472 -1.18401,1.81084 -0.766124,0.76613 -1.834054,1.20723 -1.067931,0.41788 -2.344804,0.41788 -1.253657,0 -2.321588,-0.41788 -1.06793,-0.4411 -1.834054,-1.20723 -0.766124,-0.76612 -1.207226,-1.81084 -0.417885,-1.04471 -0.417885,-2.27515 0,-1.23044 0.417885,-2.27516 0.441102,-1.04471 1.207226,-1.81084 0.766124,-0.76612 1.834054,-1.18401 1.067931,-0.4411 2.321588,-0.4411 1.276873,0 2.344804,0.4411 1.06793,0.41789 1.834054,1.18401 0.766124,0.76613 1.18401,1.81084 0.441101,1.04472 0.441101,2.27516 z m -1.671543,0 q 0,-0.90542 -0.301806,-1.69476 -0.278591,-0.81256 -0.812556,-1.39295 -0.533965,-0.60362 -1.300089,-0.95185 -0.766124,-0.34824 -1.717975,-0.34824 -0.951851,0 -1.717975,0.34824 -0.742908,0.34823 -1.276873,0.95185 -0.533965,0.58039 -0.835772,1.39295 -0.27859,0.78934 -0.27859,1.69476 0,0.90542 0.27859,1.71797 0.301807,0.78934 0.835772,1.39296 0.533965,0.58039 1.276873,0.92863 0.766124,0.32502 1.717975,0.32502 0.951851,0 1.717975,-0.32502 0.766124,-0.34824 1.300089,-0.92863 0.533965,-0.60362 0.812556,-1.39296 0.301806,-0.81255 0.301806,-1.71797 z"
         style="font-style:normal;font-variant:normal;font-weight:normal;font-stretch:normal;font-family:avenir-next-regular;-inkscape-font-specification:avenir-next-regular;stroke-width:0.58039695"
         id="path22" />
      <path
         d="m -8.4516553,113.50946 q 0,-0.4411 -0.023216,-1.13758 -0.023216,-0.69648 -0.069648,-1.25366 h 1.509032 q 0.046432,0.4411 0.069648,0.97507 0.023216,0.53396 0.023216,0.8822 h 0.046432 q 0.4643175,-0.95185 1.3929526,-1.53224 0.9286351,-0.60362 2.089429,-0.60362 0.3018064,0 0.5339652,0.0232 0.2553746,0.0232 0.5107493,0.0929 l -0.2089429,1.48582 q -0.1392953,-0.0464 -0.4643175,-0.0929 -0.3250223,-0.0464 -0.6500446,-0.0464 -0.6268287,0 -1.2072256,0.23216 -0.580397,0.23216 -1.0214987,0.74291 -0.4178858,0.48753 -0.6964763,1.27687 -0.2553746,0.76613 -0.2553746,1.85727 v 5.57181 h -1.5786797 v -8.47379 z"
         style="font-style:normal;font-variant:normal;font-weight:normal;font-stretch:normal;font-family:avenir-next-regular;-inkscape-font-specification:avenir-next-regular;stroke-width:0.58039695"
         id="path24" />
      <path
         d="M 1.4934486,121.98325 H -0.08523112 V 111.11822 H 1.4934486 Z m 0.3250222,-15.04389 q 0,0.48754 -0.3482381,0.81256 -0.3482382,0.30181 -0.76612398,0.30181 -0.4178858,0 -0.76612396,-0.30181 -0.34823817,-0.32502 -0.34823817,-0.81256 0,-0.48753 0.34823817,-0.78933 0.34823816,-0.32503 0.76612396,-0.32503 0.41788578,0 0.76612398,0.32503 0.3482381,0.3018 0.3482381,0.78933 z"
         style="font-style:normal;font-variant:normal;font-weight:normal;font-stretch:normal;font-family:avenir-next-regular;-inkscape-font-specification:avenir-next-regular;stroke-width:0.58039695"
         id="path26" />
      <path
         d="m 7.1116919,111.11822 q 0.046432,0.4411 0.069648,0.97507 0.023216,0.53396 0.023216,0.8822 h 0.046432 q 0.4643176,-0.95185 1.5090321,-1.53224 1.0447145,-0.60362 2.2055088,-0.60362 2.066213,0 3.087711,1.23044 1.044715,1.23045 1.044715,3.25023 v 6.66295 h -1.57868 v -6.01291 q 0,-0.85899 -0.139295,-1.55546 -0.139295,-0.69648 -0.487534,-1.18401 -0.325022,-0.51075 -0.905419,-0.78934 -0.557181,-0.27859 -1.416168,-0.27859 -0.6268291,0 -1.2304419,0.25537 -0.5803969,0.25538 -1.0447145,0.78934 -0.4643175,0.51075 -0.7429081,1.32331 -0.2785905,0.78934 -0.2785905,1.88048 v 5.57181 H 5.6955233 v -8.47379 q 0,-0.4411 -0.023216,-1.13758 -0.023216,-0.69648 -0.069648,-1.25366 z"
         style="font-style:normal;font-variant:normal;font-weight:normal;font-stretch:normal;font-family:avenir-next-regular;-inkscape-font-specification:avenir-next-regular;stroke-width:0.58039695"
         id="path28" />
      <path
         d="m 19.742946,124.16555 q 0.650045,0.83577 1.764407,1.41616 1.137578,0.5804 2.391235,0.5804 1.160794,0 1.97335,-0.34824 0.812555,-0.32502 1.300089,-0.90542 0.510749,-0.58039 0.742908,-1.36973 0.232159,-0.76613 0.232159,-1.64833 v -2.043 h -0.04643 q -0.626829,1.0215 -1.787623,1.57868 -1.137578,0.55718 -2.321587,0.55718 -1.276874,0 -2.321588,-0.41788 -1.021499,-0.41789 -1.764407,-1.13758 -0.719692,-0.74291 -1.137578,-1.76441 -0.39467,-1.0215 -0.39467,-2.20551 0,-1.16079 0.39467,-2.18229 0.417886,-1.0215 1.137578,-1.78762 0.742908,-0.76612 1.764407,-1.20723 1.044714,-0.4411 2.321588,-0.4411 1.184009,0 2.321587,0.55718 1.137578,0.55718 1.787623,1.6019 h 0.04643 v -1.88049 h 1.578679 v 10.77217 q 0,0.8822 -0.255374,1.88049 -0.232159,0.99828 -0.90542,1.83405 -0.650044,0.83577 -1.787622,1.39295 -1.137578,0.55718 -2.948417,0.55718 -1.509032,0 -2.878768,-0.58039 -1.369737,-0.5804 -2.344804,-1.6019 z m 0.301806,-7.75411 q 0,0.85899 0.278591,1.62511 0.278591,0.76613 0.78934,1.34653 0.533965,0.58039 1.300089,0.92863 0.766124,0.32502 1.741191,0.32502 0.905419,0 1.671543,-0.3018 0.766124,-0.30181 1.323305,-0.85899 0.557181,-0.55718 0.858987,-1.32331 0.325023,-0.78934 0.325023,-1.74119 0,-0.85898 -0.325023,-1.62511 -0.301806,-0.76612 -0.858987,-1.34652 -0.557181,-0.5804 -1.323305,-0.92863 -0.766124,-0.34824 -1.671543,-0.34824 -0.975067,0 -1.741191,0.34824 -0.766124,0.34823 -1.300089,0.92863 -0.510749,0.5804 -0.78934,1.34652 -0.278591,0.76613 -0.278591,1.62511 z"
         style="font-style:normal;font-variant:normal;font-weight:normal;font-stretch:normal;font-family:avenir-next-regular;-inkscape-font-specification:avenir-next-regular;stroke-width:0.58039695"
         id="path30" />
      <path
         d="m 49.849581,118.17585 3.691325,3.8074 h -2.321588 l -2.321588,-2.43766 q -1.021498,1.39295 -2.205508,2.06621 -1.18401,0.65004 -2.855553,0.65004 -1.044714,0 -1.996565,-0.3018 -0.928635,-0.30181 -1.625112,-0.85899 -0.696476,-0.5804 -1.114362,-1.41617 -0.39467,-0.85899 -0.39467,-1.97335 0,-0.92863 0.278591,-1.67154 0.301806,-0.74291 0.812556,-1.32331 0.510749,-0.60361 1.207225,-1.06793 0.696476,-0.46431 1.509032,-0.81255 -0.371454,-0.37146 -0.742908,-0.81256 -0.348238,-0.4411 -0.626829,-0.90542 -0.27859,-0.48753 -0.464317,-1.0215 -0.162511,-0.53396 -0.162511,-1.09114 0,-0.92864 0.325022,-1.64833 0.325022,-0.71969 0.882203,-1.20722 0.557181,-0.51075 1.300089,-0.76613 0.742909,-0.25537 1.57868,-0.25537 0.812556,0 1.532248,0.25537 0.719692,0.23216 1.253657,0.71969 0.557182,0.46432 0.858988,1.1608 0.325022,0.67326 0.325022,1.55546 0,0.81256 -0.325022,1.4626 -0.301806,0.65005 -0.835772,1.18401 -0.510749,0.51075 -1.184009,0.92864 -0.650045,0.39467 -1.346521,0.7429 l 3.830619,3.9467 2.275156,-3.99313 h 1.880487 z m -2.901984,-9.356 q 0,-1.0215 -0.673261,-1.67154 -0.650044,-0.65005 -1.648327,-0.65005 -1.091146,0 -1.787623,0.69648 -0.696476,0.67326 -0.696476,1.83405 0,0.44111 0.185727,0.92864 0.185727,0.46432 0.464318,0.8822 0.27859,0.41789 0.580397,0.76613 0.325022,0.34823 0.557181,0.53396 0.557181,-0.25537 1.091146,-0.55718 0.533965,-0.32502 0.951851,-0.71969 0.441102,-0.39467 0.696476,-0.90542 0.278591,-0.51075 0.278591,-1.13758 z m -3.505598,5.08428 q -1.485816,0.67326 -2.25194,1.60189 -0.766124,0.90542 -0.766124,2.22873 0,0.69647 0.255375,1.27687 0.27859,0.5804 0.742908,0.99828 0.487533,0.39467 1.114362,0.62683 0.626829,0.23216 1.323305,0.23216 1.346521,0 2.228724,-0.60361 0.90542,-0.60361 1.694759,-1.81084 z"
         style="font-style:normal;font-variant:normal;font-weight:normal;font-stretch:normal;font-family:avenir-next-regular;-inkscape-font-specification:avenir-next-regular;stroke-width:0.58039695"
         id="path32" />
      <path
         d="m -82.27488,149.66775 h 8.798818 v 1.48582 h -10.470361 v -16.43684 h 10.19177 v 1.48581 h -8.520227 v 5.66468 h 7.963046 v 1.4626 h -7.963046 z"
         style="font-style:normal;font-variant:normal;font-weight:normal;font-stretch:normal;font-family:avenir-next-regular;-inkscape-font-specification:avenir-next-regular;stroke-width:0.58039695"
         id="path34" />
      <path
         d="m -66.114815,151.15357 h -1.741191 l -4.434233,-10.86503 h 1.764407 l 3.528813,9.19349 h 0.04643 l 3.55203,-9.19349 h 1.694759 z"
         style="font-style:normal;font-variant:normal;font-weight:normal;font-stretch:normal;font-family:avenir-next-regular;-inkscape-font-specification:avenir-next-regular;stroke-width:0.58039695"
         id="path36" />
      <path
         d="m -52.387702,144.14237 q 0,-1.41617 -0.742908,-2.11264 -0.742909,-0.69648 -2.159077,-0.69648 -0.975067,0 -1.810838,0.34824 -0.835772,0.34824 -1.416169,0.92864 l -0.882203,-1.04472 q 0.67326,-0.67326 1.764406,-1.11436 1.114362,-0.4411 2.507315,-0.4411 0.882203,0 1.648327,0.25537 0.766124,0.23216 1.346521,0.71969 0.580397,0.48754 0.90542,1.23045 0.325022,0.7429 0.325022,1.74119 v 4.75925 q 0,0.62683 0.04643,1.30009 0.04643,0.67326 0.139295,1.13758 h -1.416169 q -0.06965,-0.39467 -0.116079,-0.85899 -0.04643,-0.46432 -0.04643,-0.90542 h -0.04643 q -0.742908,1.09115 -1.694759,1.57868 -0.928635,0.46432 -2.25194,0.46432 -0.626828,0 -1.300089,-0.18573 -0.650044,-0.16251 -1.207226,-0.55718 -0.533965,-0.39467 -0.905419,-1.0215 -0.348238,-0.62683 -0.348238,-1.53225 0,-1.25365 0.626829,-1.97335 0.650044,-0.7429 1.717975,-1.09114 1.06793,-0.37146 2.437667,-0.46432 1.392952,-0.11608 2.878769,-0.11608 z m -0.464318,1.57868 q -0.975067,0 -1.973349,0.0929 -0.975067,0.0696 -1.787623,0.32502 -0.78934,0.23216 -1.300089,0.69648 -0.51075,0.46431 -0.51075,1.23044 0,0.58039 0.208943,0.97506 0.232159,0.39467 0.603613,0.65005 0.371454,0.23216 0.812556,0.34824 0.464317,0.0929 0.928635,0.0929 0.835772,0 1.485816,-0.27859 0.650045,-0.30181 1.091146,-0.78934 0.441102,-0.51075 0.673261,-1.16079 0.232159,-0.65005 0.232159,-1.36974 v -0.81256 z"
         style="font-style:normal;font-variant:normal;font-weight:normal;font-stretch:normal;font-family:avenir-next-regular;-inkscape-font-specification:avenir-next-regular;stroke-width:0.58039695"
         id="path38" />
      <path
         d="m -45.232496,151.15357 h -1.57868 v -17.55121 h 1.57868 z"
         style="font-style:normal;font-variant:normal;font-weight:normal;font-stretch:normal;font-family:avenir-next-regular;-inkscape-font-specification:avenir-next-regular;stroke-width:0.58039695"
         id="path40" />
      <path
         d="m -33.114898,151.15357 q -0.04643,-0.4411 -0.06965,-0.97507 -0.02322,-0.53396 -0.02322,-0.8822 h -0.04643 q -0.464317,0.95185 -1.509032,1.55546 -1.044714,0.5804 -2.205508,0.5804 -2.066213,0 -3.110928,-1.23044 -1.021498,-1.23044 -1.021498,-3.25023 v -6.66295 h 1.578679 v 6.01291 q 0,0.85899 0.139295,1.55546 0.139296,0.69648 0.464318,1.20723 0.348238,0.48753 0.905419,0.76612 0.580397,0.27859 1.439385,0.27859 0.626828,0 1.207225,-0.25537 0.603613,-0.25538 1.067931,-0.76612 0.464317,-0.53397 0.742908,-1.32331 0.27859,-0.81256 0.27859,-1.9037 v -5.57181 h 1.57868 v 8.47379 q 0,0.4411 0.02322,1.13758 0.02322,0.69648 0.06965,1.25366 z"
         style="font-style:normal;font-variant:normal;font-weight:normal;font-stretch:normal;font-family:avenir-next-regular;-inkscape-font-specification:avenir-next-regular;stroke-width:0.58039695"
         id="path42" />
      <path
         d="m -20.692586,144.14237 q 0,-1.41617 -0.742908,-2.11264 -0.742908,-0.69648 -2.159077,-0.69648 -0.975067,0 -1.810838,0.34824 -0.835772,0.34824 -1.416169,0.92864 l -0.882203,-1.04472 q 0.67326,-0.67326 1.764406,-1.11436 1.114362,-0.4411 2.507315,-0.4411 0.882203,0 1.648327,0.25537 0.766124,0.23216 1.346521,0.71969 0.580397,0.48754 0.90542,1.23045 0.325022,0.7429 0.325022,1.74119 v 4.75925 q 0,0.62683 0.04643,1.30009 0.04643,0.67326 0.139295,1.13758 h -1.416169 q -0.06965,-0.39467 -0.116079,-0.85899 -0.04643,-0.46432 -0.04643,-0.90542 h -0.04643 q -0.742908,1.09115 -1.694759,1.57868 -0.928635,0.46432 -2.25194,0.46432 -0.626828,0 -1.300089,-0.18573 -0.650044,-0.16251 -1.207226,-0.55718 -0.533965,-0.39467 -0.905419,-1.0215 -0.348238,-0.62683 -0.348238,-1.53225 0,-1.25365 0.626829,-1.97335 0.650044,-0.7429 1.717975,-1.09114 1.06793,-0.37146 2.437667,-0.46432 1.392953,-0.11608 2.878769,-0.11608 z m -0.464318,1.57868 q -0.975067,0 -1.973349,0.0929 -0.975067,0.0696 -1.787623,0.32502 -0.78934,0.23216 -1.300089,0.69648 -0.510749,0.46431 -0.510749,1.23044 0,0.58039 0.208942,0.97506 0.232159,0.39467 0.603613,0.65005 0.371454,0.23216 0.812556,0.34824 0.464318,0.0929 0.928635,0.0929 0.835772,0 1.485816,-0.27859 0.650045,-0.30181 1.091146,-0.78934 0.441102,-0.51075 0.673261,-1.16079 0.232159,-0.65005 0.232159,-1.36974 v -0.81256 z"
         style="font-style:normal;font-variant:normal;font-weight:normal;font-stretch:normal;font-family:avenir-next-regular;-inkscape-font-specification:avenir-next-regular;stroke-width:0.58039695"
         id="path44" />
      <path
         d="m -10.490659,141.61184 h -3.064495 v 6.33794 q 0,0.60361 0.116079,0.99828 0.116079,0.39467 0.325022,0.62683 0.232159,0.20894 0.533965,0.30181 0.301807,0.0696 0.650045,0.0696 0.325022,0 0.67326,-0.0929 0.371455,-0.0929 0.696477,-0.25538 l 0.06965,1.36974 q -0.417885,0.16251 -0.882203,0.23216 -0.441102,0.0929 -0.975067,0.0929 -0.441101,0 -0.928635,-0.11608 -0.487533,-0.11608 -0.905419,-0.4411 -0.417886,-0.32502 -0.696476,-0.8822 -0.255375,-0.55718 -0.255375,-1.4626 v -6.77904 h -2.25194 v -1.3233 h 2.25194 v -3.0645 h 1.57868 v 3.0645 h 3.064495 z"
         style="font-style:normal;font-variant:normal;font-weight:normal;font-stretch:normal;font-family:avenir-next-regular;-inkscape-font-specification:avenir-next-regular;stroke-width:0.58039695"
         id="path46" />
      <path
         d="m -6.4416634,151.15357 h -1.5786797 v -10.86503 h 1.5786797 z m 0.3250222,-15.04389 q 0,0.48753 -0.3482381,0.81256 -0.3482382,0.3018 -0.766124,0.3018 -0.4178858,0 -0.7661239,-0.3018 -0.3482382,-0.32503 -0.3482382,-0.81256 0,-0.48753 0.3482382,-0.78934 0.3482381,-0.32502 0.7661239,-0.32502 0.4178858,0 0.766124,0.32502 0.3482381,0.30181 0.3482381,0.78934 z"
         style="font-style:normal;font-variant:normal;font-weight:normal;font-stretch:normal;font-family:avenir-next-regular;-inkscape-font-specification:avenir-next-regular;stroke-width:0.58039695"
         id="path48" />
      <path
         d="m 8.5557868,145.72105 q 0,1.23044 -0.4411017,2.27516 -0.4178858,1.04471 -1.1840098,1.81084 -0.7661239,0.76612 -1.8340543,1.20722 -1.0679304,0.41789 -2.3448036,0.41789 -1.2536574,0 -2.32158777,-0.41789 -1.06793037,-0.4411 -1.83405433,-1.20722 -0.766124,-0.76613 -1.2072256,-1.81084 -0.4178858,-1.04472 -0.4178858,-2.27516 0,-1.23044 0.4178858,-2.27515 0.4411016,-1.04472 1.2072256,-1.81084 0.76612396,-0.76613 1.83405433,-1.18401 1.06793037,-0.4411 2.32158777,-0.4411 1.2768732,0 2.3448036,0.4411 1.0679304,0.41788 1.8340543,1.18401 0.766124,0.76612 1.1840098,1.81084 0.4411017,1.04471 0.4411017,2.27515 z m -1.6715432,0 q 0,-0.90542 -0.3018064,-1.69476 -0.2785906,-0.81255 -0.8125557,-1.39295 -0.5339652,-0.60361 -1.3000892,-0.95185 -0.7661239,-0.34824 -1.7179749,-0.34824 -0.951851,0 -1.717975,0.34824 -0.74290804,0.34824 -1.27687322,0.95185 -0.53396519,0.5804 -0.83577158,1.39295 -0.2785905,0.78934 -0.2785905,1.69476 0,0.90542 0.2785905,1.71798 0.30180639,0.78934 0.83577158,1.39295 0.53396518,0.5804 1.27687322,0.92864 0.766124,0.32502 1.717975,0.32502 0.951851,0 1.7179749,-0.32502 0.766124,-0.34824 1.3000892,-0.92864 0.5339651,-0.60361 0.8125557,-1.39295 0.3018064,-0.81256 0.3018064,-1.71798 z"
         style="font-style:normal;font-variant:normal;font-weight:normal;font-stretch:normal;font-family:avenir-next-regular;-inkscape-font-specification:avenir-next-regular;stroke-width:0.58039695"
         id="path50" />
      <path
         d="m 13.369092,140.28854 q 0.04643,0.4411 0.06965,0.97506 0.02322,0.53397 0.02322,0.88221 h 0.04643 q 0.464317,-0.95185 1.509032,-1.53225 1.044714,-0.60361 2.205508,-0.60361 2.066213,0 3.087712,1.23044 1.044714,1.23044 1.044714,3.25022 v 6.66296 h -1.578679 v -6.01291 q 0,-0.85899 -0.139296,-1.55547 -0.139295,-0.69647 -0.487533,-1.18401 -0.325022,-0.51075 -0.905419,-0.78934 -0.557181,-0.27859 -1.416169,-0.27859 -0.626829,0 -1.230441,0.25538 -0.580397,0.25537 -1.044715,0.78934 -0.464317,0.51075 -0.742908,1.3233 -0.27859,0.78934 -0.27859,1.88049 v 5.57181 h -1.57868 v -8.4738 q 0,-0.4411 -0.02322,-1.13757 -0.02322,-0.69648 -0.06965,-1.25366 z"
         style="font-style:normal;font-variant:normal;font-weight:normal;font-stretch:normal;font-family:avenir-next-regular;-inkscape-font-specification:avenir-next-regular;stroke-width:0.58039695"
         id="path52" />
    </g>
  </g>
</svg>
